<svg width="64" height="122" viewBox="0 0 64 122" fill="none" xmlns="http://www.w3.org/2000/svg">
<path d="M63.4995 115L47.016 98.8251L41.2499 121.188L63.4995 115ZM49.7745 0.410461C28.2482 16.8486 14.8145 31.2686 7.41366 43.9141C-0.0115871 56.6013 -1.4108 67.598 1.32658 76.9924C4.04651 86.3269 10.7494 93.727 18.8357 99.4811C26.9298 105.241 36.562 109.462 45.4424 112.405L46.7005 108.608C38.0462 105.74 28.815 101.673 21.1548 96.222C13.4869 90.7657 7.54476 84.034 5.16687 75.8734C2.80645 67.7727 3.8566 57.911 10.8659 45.9346C17.8995 33.9165 30.8856 19.8675 52.2021 3.58954L49.7745 0.410461Z" fill="#E7FF87"/>
</svg>
