<svg width="111" height="107" viewBox="0 0 111 107" fill="none" xmlns="http://www.w3.org/2000/svg">
<g filter="url(#filter0_i_2022_42)">
<circle cx="55" cy="51" r="43" fill="#4F5C19"/>
</g>
<path d="M55.6656 81.3965C50.9462 81.3965 46.2434 80.3036 41.9215 78.1344C41.8221 78.0847 41.7393 78.0516 41.64 78.0019C41.64 78.0019 41.64 77.9853 41.6234 78.0019C41.5241 77.9522 41.4413 77.9025 41.3419 77.8529C33.3935 73.6468 27.7302 66.2614 25.7597 57.485C25.7266 57.4022 25.71 57.336 25.6934 57.2532C24.2031 50.348 25.1304 43.0951 28.3264 36.8191C28.3429 36.7695 28.3595 36.7198 28.3926 36.6701C28.4257 36.6204 28.4423 36.5708 28.4754 36.5211C31.7376 30.2617 37.0862 25.2939 43.5774 22.4954C43.6602 22.4623 43.7264 22.4458 43.8092 22.4126C52.2047 18.8855 61.6435 19.2333 69.7409 23.4062C70.7676 23.9361 71.7612 24.5157 72.705 25.1449C72.7216 25.1449 72.7382 25.1615 72.7547 25.1615C79.279 29.5165 83.8825 36.1733 85.6212 43.923C85.6543 43.9893 85.6709 44.0721 85.6875 44.1383C87.1943 51.0932 86.2339 58.3958 82.9883 64.7214C79.7427 71.0305 74.3444 76.0645 67.8201 78.8795C67.7373 78.9127 67.671 78.9292 67.5882 78.9623C63.7465 80.6017 59.6895 81.3965 55.6656 81.3965ZM52.6353 78.2006C56.7751 78.6643 60.9977 78.184 65.005 76.7434C64.0942 75.2862 63.0013 73.8621 61.7263 72.4711C60.3684 73.6965 58.9775 74.7729 57.5368 75.7002C55.8809 76.7765 54.2415 77.621 52.6353 78.2006ZM44.4219 75.8658C47.6675 76.8428 51.6748 75.9154 55.8974 73.1666C57.1559 72.3386 58.3979 71.3948 59.5901 70.3184C57.0235 67.9339 53.9766 65.7315 50.5819 63.8603L44.4219 75.8658ZM63.879 70.3681C65.419 72.0406 66.7437 73.7959 67.8201 75.5677C72.705 73.1666 76.8117 69.3745 79.5605 64.6883L71.1319 60.3498C69.062 64.1253 66.5947 67.5199 63.879 70.3681ZM37.4174 58.9257C37.2352 60.5319 37.1855 62.0885 37.2518 63.5954C37.467 68.6128 39.0402 72.4214 41.7393 74.5079L47.9159 62.5025C44.4054 60.83 40.8451 59.6212 37.4174 58.9257ZM29.0715 58.2633C30.2307 62.3369 32.284 66.0627 35.0494 69.1593C34.6023 67.5034 34.3208 65.6984 34.238 63.7279C34.1552 62.0223 34.238 60.2504 34.4367 58.4455C32.5655 58.2136 30.7771 58.1474 29.0715 58.2633ZM51.9729 61.1943C55.6491 63.2145 58.9609 65.6156 61.7594 68.232C64.2433 65.6156 66.5285 62.4694 68.4493 58.9754L56.328 52.7325L51.9729 61.1943ZM72.5229 57.6672L80.9515 62.0057C83.1705 57.0379 83.8825 51.4906 82.9883 46.1254C80.9184 46.291 78.716 46.2248 76.464 45.9598C75.7023 49.8016 74.3775 53.7758 72.5229 57.6672ZM37.8645 55.9285C41.6234 56.6736 45.4983 57.9818 49.2738 59.8033L53.6288 51.3416L41.5075 45.0987C39.7853 48.7087 38.56 52.3848 37.8645 55.9285ZM57.7024 50.05L69.8237 56.2928C71.5459 52.6994 72.7713 49.0233 73.4668 45.4796C69.7078 44.7344 65.833 43.4263 62.0409 41.6213L57.7024 50.05ZM30.6943 55.1833C32.0522 55.1833 33.4597 55.2661 34.8838 55.4483C35.629 51.59 36.9537 47.5992 38.8249 43.7243L30.4128 39.4024C28.1939 44.3701 27.4818 49.9009 28.376 55.2827C29.1378 55.2164 29.916 55.1833 30.6943 55.1833ZM42.8985 42.4162L55.0198 48.659L59.3583 40.2138C55.6822 38.1936 52.3703 35.7925 49.5718 33.1596C47.1045 35.7925 44.8193 38.9222 42.8985 42.4162ZM76.9111 42.9626C78.7823 43.1779 80.5872 43.2441 82.2928 43.1448C81.1337 39.0546 79.0638 35.3288 76.2818 32.2157C76.7455 33.8716 77.0104 35.6931 77.1098 37.6802C77.176 39.3858 77.1098 41.1411 76.9111 42.9626ZM63.4319 38.9222C66.9259 40.5781 70.4861 41.7869 73.9304 42.4824C74.1126 40.8762 74.1622 39.3196 74.096 37.8127C73.8807 32.7953 72.2911 28.9866 69.625 26.9167L63.4319 38.9222ZM31.8038 36.7032L40.2159 41.0252C42.2858 37.2497 44.7697 33.855 47.4688 31.0069C45.9288 29.3344 44.6041 27.5791 43.5443 25.8073C38.6427 28.2249 34.5526 32.017 31.8038 36.7032ZM51.7411 31.0565C54.3078 33.4411 57.3547 35.66 60.7327 37.5312L66.9093 25.5258C63.6637 24.5488 59.6398 25.4761 55.4338 28.2249C54.1918 29.0363 52.9499 29.9802 51.7411 31.0565ZM46.3593 24.6481C47.2701 26.1053 48.363 27.5294 49.6215 28.9204C50.9794 27.695 52.3703 26.6187 53.7944 25.6914C55.4503 24.615 57.0897 23.7705 58.696 23.1909C56.3777 22.9425 54.0097 22.9756 51.6914 23.3234C49.903 23.5718 48.1146 24.0189 46.3593 24.6481Z" fill="#B2DB10"/>
<path d="M55.6657 80.1869C51.1285 80.1869 46.6078 79.1437 42.4514 77.0406C42.3686 76.991 42.2859 76.9578 42.2031 76.9082C42.1203 76.8585 42.0209 76.8088 41.9381 76.7591C34.2546 72.7021 28.7901 65.5485 26.9189 57.0537C26.9023 57.0206 26.8858 57.004 26.8858 56.9709C25.4451 50.3141 26.3559 43.3261 29.4525 37.2654C29.4525 37.2489 29.469 37.2157 29.469 37.1992C29.4856 37.1826 29.5021 37.1661 29.5021 37.1495C32.6318 31.1054 37.7983 26.3032 44.0577 23.6041C44.0908 23.5875 44.1239 23.5875 44.157 23.5875C52.2545 20.1432 61.3621 20.4744 69.178 24.4983C77.0105 28.5222 82.5744 35.7585 84.4621 44.3528C84.4787 44.3859 84.4953 44.4024 84.4953 44.4356C85.9359 51.1255 85.0252 58.1466 81.8955 64.2073C78.7658 70.2679 73.5993 75.1032 67.3234 77.8189C67.2903 77.8355 67.2571 77.8355 67.224 77.8355C63.4982 79.4086 59.5737 80.1869 55.6657 80.1869ZM46.3594 78.0342C52.9665 80.3028 60.2029 80.0875 66.7438 77.3553C65.5019 75.0867 63.8128 72.8677 61.7595 70.7647C60.1864 72.2716 58.547 73.5963 56.858 74.6892C53.1818 77.0903 49.5553 78.2329 46.3594 78.0342ZM42.733 76.5107C46.5581 78.3323 51.4431 77.5043 56.5599 74.1925C58.2158 73.1161 59.8221 71.8245 61.3621 70.3507C58.282 67.2873 54.4238 64.5053 50.0852 62.2367L42.733 76.5107ZM62.2066 70.3507C64.3262 72.5034 66.0649 74.8051 67.3234 77.14C73.2681 74.5071 78.1862 69.9202 81.2165 64.1741L70.6187 58.7262C68.3004 63.1971 65.4025 67.1714 62.2066 70.3507ZM36.3742 57.5008C36.0596 59.6038 35.9437 61.6737 36.043 63.6277C36.308 69.7049 38.4938 74.1759 42.1865 76.2292L49.5388 61.9386C45.1837 59.7363 40.663 58.2294 36.3742 57.5008ZM27.5482 57.1862C29.1378 64.0913 33.1452 70.0858 38.825 74.1593C36.8048 71.6589 35.6291 68.0656 35.4469 63.6608C35.3641 61.6571 35.48 59.5541 35.7946 57.4014C32.8968 56.9543 30.1148 56.8715 27.5482 57.1862ZM50.3502 61.6903C54.7384 63.9754 58.6463 66.807 61.776 69.9202C64.9223 66.7905 67.7705 62.8825 70.0888 58.4612L55.7982 51.1089L50.3502 61.6903ZM70.9002 58.1963L81.498 63.6442C84.4125 57.832 85.2736 51.1752 83.9654 44.7999C81.3325 45.1145 78.4512 45.0482 75.4705 44.5846C74.7419 49.039 73.1853 53.6922 70.9002 58.1963ZM36.4736 56.9046C40.8286 57.6498 45.399 59.1733 49.8203 61.4087L55.2683 50.8274L40.9777 43.4751C38.7091 47.913 37.1856 52.5165 36.4736 56.9046ZM56.0797 50.5625L70.3703 57.9148C72.6223 53.4769 74.1623 48.8734 74.8578 44.4852C70.5027 43.7566 65.9158 42.2166 61.5111 39.9811L56.0797 50.5625ZM30.711 56.3913C32.3834 56.3913 34.1056 56.5238 35.8774 56.8053C36.606 52.3509 38.146 47.6977 40.4312 43.1936L29.8499 37.7456C26.9355 43.5414 26.0744 50.2147 27.3826 56.59C28.4589 56.4575 29.5684 56.3913 30.711 56.3913ZM41.2426 42.9287L55.5332 50.281L60.9812 39.6996C56.593 37.4145 52.685 34.5828 49.5553 31.4531C46.4091 34.5994 43.5609 38.5074 41.2426 42.9287ZM75.5533 43.9885C78.4512 44.4356 81.2497 44.5018 83.8163 44.2037C82.2267 37.282 78.1862 31.271 72.4898 27.1974C74.5266 29.6979 75.7023 33.2912 75.901 37.7125C75.9838 39.7327 75.8679 41.8358 75.5533 43.9885ZM61.7926 39.4512C66.1477 41.6702 70.6683 43.1771 74.9572 43.8891C75.2718 41.7695 75.3877 39.7162 75.2883 37.7456C75.0234 31.6518 72.8376 27.1974 69.1449 25.1441L61.7926 39.4512ZM30.1314 37.2157L40.7127 42.6637C43.0476 38.1927 45.9454 34.2185 49.1414 31.0392C47.0383 28.8699 45.3162 26.5847 44.0411 24.2664C38.0798 26.8828 33.1617 31.4697 30.1314 37.2157ZM49.9859 31.0392C53.0659 34.1192 56.9242 36.9011 61.2461 39.1697L68.5984 24.8791C64.7733 23.0576 59.8717 23.8856 54.7715 27.1974C53.1321 28.2738 51.5259 29.5654 49.9859 31.0392ZM44.6041 24.0346C45.8461 26.2867 47.5186 28.5222 49.5719 30.6252C51.145 29.1183 52.7844 27.7936 54.4569 26.7006C58.1661 24.2996 61.776 23.1735 64.9885 23.3557C59.0934 21.3355 52.7016 21.2858 46.7237 23.2398C46.0117 23.4716 45.2996 23.7365 44.6041 24.0346Z" fill="white"/>
<g filter="url(#filter1_f_2022_42)">
<circle cx="55.5" cy="51.5" r="36.5" fill="#E7FF87" fill-opacity="0.55"/>
</g>
<defs>
<filter id="filter0_i_2022_42" x="12" y="8" width="86" height="88" filterUnits="userSpaceOnUse" color-interpolation-filters="sRGB">
<feFlood flood-opacity="0" result="BackgroundImageFix"/>
<feBlend mode="normal" in="SourceGraphic" in2="BackgroundImageFix" result="shape"/>
<feColorMatrix in="SourceAlpha" type="matrix" values="0 0 0 0 0 0 0 0 0 0 0 0 0 0 0 0 0 0 127 0" result="hardAlpha"/>
<feOffset dy="2"/>
<feGaussianBlur stdDeviation="2.65"/>
<feComposite in2="hardAlpha" operator="arithmetic" k2="-1" k3="1"/>
<feColorMatrix type="matrix" values="0 0 0 0 0.690492 0 0 0 0 0.844302 0 0 0 0 0.0752529 0 0 0 1 0"/>
<feBlend mode="normal" in2="shape" result="effect1_innerShadow_2022_42"/>
</filter>
<filter id="filter1_f_2022_42" x="0" y="-4" width="111" height="111" filterUnits="userSpaceOnUse" color-interpolation-filters="sRGB">
<feFlood flood-opacity="0" result="BackgroundImageFix"/>
<feBlend mode="normal" in="SourceGraphic" in2="BackgroundImageFix" result="shape"/>
<feGaussianBlur stdDeviation="9.5" result="effect1_foregroundBlur_2022_42"/>
</filter>
</defs>
</svg>
