<svg width="38" height="39" viewBox="0 0 38 39" fill="none" xmlns="http://www.w3.org/2000/svg">
<rect y="2" width="36" height="37" rx="8" fill="#D9FFDE"/>
<rect x="2" width="36" height="36" rx="7" fill="#323232"/>
<g clip-path="url(#clip0_184_1468)" filter="url(#filter0_f_184_1468)">
<path d="M13.4658 23.4688L19.4639 17.4707L20.5245 18.5314L14.5265 24.5294L13.4658 23.4688Z" fill="#87FF97" fill-opacity="0.11"/>
<path d="M20.75 28.5C20.655 28.5002 20.5608 28.4824 20.4725 28.4475C20.3496 28.3985 20.2419 28.3179 20.1602 28.2139C20.0786 28.1098 20.0259 27.986 20.0075 27.855L19.2575 22.605L20.7575 22.395L21.32 26.3475L23.75 24.39V18.75C23.7494 18.6513 23.7684 18.5534 23.8057 18.4621C23.843 18.3707 23.898 18.2876 23.9675 18.2175L27.02 15.165C27.649 14.5403 28.1478 13.7971 28.4877 12.9783C28.8276 12.1595 29.0017 11.2815 29 10.395V9H27.605C26.7185 8.99832 25.8405 9.17244 25.0217 9.51231C24.203 9.85217 23.4597 10.351 22.835 10.98L19.7825 14.0325C19.7124 14.102 19.6293 14.157 19.5379 14.1943C19.4466 14.2317 19.3487 14.2506 19.25 14.25H13.61L11.6525 16.695L15.605 17.2575L15.395 18.7575L10.145 18.0075C10.014 17.9891 9.89021 17.9364 9.78615 17.8548C9.68209 17.7731 9.60149 17.6654 9.5525 17.5425C9.50291 17.4188 9.4872 17.2841 9.50697 17.1522C9.52674 17.0204 9.58129 16.8962 9.665 16.7925L12.665 13.0425C12.7341 12.9527 12.8226 12.8798 12.9239 12.8291C13.0253 12.7785 13.1367 12.7514 13.25 12.75H18.9425L21.77 9.915C22.5344 9.14633 23.4437 8.53705 24.4454 8.12249C25.447 7.70794 26.521 7.49635 27.605 7.5H29C29.3978 7.5 29.7794 7.65804 30.0607 7.93934C30.342 8.22064 30.5 8.60218 30.5 9V10.395C30.5037 11.479 30.2921 12.553 29.8775 13.5546C29.463 14.5563 28.8537 15.4656 28.085 16.23L25.25 19.0575V24.75C25.2495 24.8627 25.2236 24.9737 25.1743 25.075C25.1249 25.1763 25.0534 25.2652 24.965 25.335L21.215 28.335C21.083 28.4409 20.9192 28.499 20.75 28.5Z" fill="#87FF97" fill-opacity="0.11"/>
</g>
<g clip-path="url(#clip1_184_1468)">
<path d="M13.4658 23.4688L19.4639 17.4707L20.5245 18.5314L14.5265 24.5294L13.4658 23.4688Z" fill="#D9FFDE"/>
<path d="M20.75 28.5C20.655 28.5002 20.5608 28.4824 20.4725 28.4475C20.3496 28.3985 20.2419 28.3179 20.1602 28.2139C20.0786 28.1098 20.0259 27.986 20.0075 27.855L19.2575 22.605L20.7575 22.395L21.32 26.3475L23.75 24.39V18.75C23.7494 18.6513 23.7684 18.5534 23.8057 18.4621C23.843 18.3707 23.898 18.2876 23.9675 18.2175L27.02 15.165C27.649 14.5403 28.1478 13.7971 28.4877 12.9783C28.8276 12.1595 29.0017 11.2815 29 10.395V9H27.605C26.7185 8.99832 25.8405 9.17244 25.0217 9.51231C24.203 9.85217 23.4597 10.351 22.835 10.98L19.7825 14.0325C19.7124 14.102 19.6293 14.157 19.5379 14.1943C19.4466 14.2317 19.3487 14.2506 19.25 14.25H13.61L11.6525 16.695L15.605 17.2575L15.395 18.7575L10.145 18.0075C10.014 17.9891 9.89021 17.9364 9.78615 17.8548C9.68209 17.7731 9.60149 17.6654 9.5525 17.5425C9.50291 17.4188 9.4872 17.2841 9.50697 17.1522C9.52674 17.0204 9.58129 16.8962 9.665 16.7925L12.665 13.0425C12.7341 12.9527 12.8226 12.8798 12.9239 12.8291C13.0253 12.7785 13.1367 12.7514 13.25 12.75H18.9425L21.77 9.915C22.5344 9.14633 23.4437 8.53705 24.4454 8.12249C25.447 7.70794 26.521 7.49635 27.605 7.5H29C29.3978 7.5 29.7794 7.65804 30.0607 7.93934C30.342 8.22064 30.5 8.60218 30.5 9V10.395C30.5037 11.479 30.2921 12.553 29.8775 13.5546C29.463 14.5563 28.8537 15.4656 28.085 16.23L25.25 19.0575V24.75C25.2495 24.8627 25.2236 24.9737 25.1743 25.075C25.1249 25.1763 25.0534 25.2652 24.965 25.335L21.215 28.335C21.083 28.4409 20.9192 28.499 20.75 28.5Z" fill="#D9FFDE"/>
</g>
<defs>
<filter id="filter0_f_184_1468" x="4" y="2" width="32" height="32" filterUnits="userSpaceOnUse" color-interpolation-filters="sRGB">
<feFlood flood-opacity="0" result="BackgroundImageFix"/>
<feBlend mode="normal" in="SourceGraphic" in2="BackgroundImageFix" result="shape"/>
<feGaussianBlur stdDeviation="2" result="effect1_foregroundBlur_184_1468"/>
</filter>
<clipPath id="clip0_184_1468">
<rect width="24" height="24" fill="white" transform="translate(8 6)"/>
</clipPath>
<clipPath id="clip1_184_1468">
<rect width="24" height="24" fill="white" transform="translate(8 6)"/>
</clipPath>
</defs>
</svg>
