<svg width="40" height="54" viewBox="0 0 40 54" fill="none" xmlns="http://www.w3.org/2000/svg">
<path fill-rule="evenodd" clip-rule="evenodd" d="M22.9175 19.8517L23.9225 19.2654L23.5272 19.8024L25.3228 19.0436C25.3228 19.0436 24.4248 19.7184 24.5726 19.6842C24.7199 19.6498 26.5353 19.2408 26.5353 19.2408L24.8136 20.1033L28.1767 19.3245L27.1946 18.1889L29.3311 19.9013L29.0419 19.9232L28.8705 19.8188L27.8536 20.9072L27.58 20.7381L27.6241 21.3292L27.4665 21.2553L27.2353 21.6972L27.1382 21.7035L27.1837 21.4225L25.9927 22.2798L25.9103 22.2355L26.1257 21.8695C26.1257 21.8695 23.7201 23.9212 23.7078 23.8483C23.6955 23.7753 22.5147 20.8956 22.5147 20.8956L21.4957 22.8701L21.3168 22.3741L22.9175 19.8515V19.8517ZM17.0821 19.8517L16.0771 19.2654L16.4724 19.8024L14.6769 19.0436C14.6769 19.0436 15.5748 19.7184 15.4271 19.6842C15.2797 19.6498 13.4643 19.2408 13.4643 19.2408L15.186 20.1033L11.8229 19.3245L12.805 18.1889L10.6685 19.9013L10.9578 19.9232L11.1291 19.8188L12.1461 20.9072L12.4196 20.7381L12.3755 21.3292L12.5332 21.2553L12.7643 21.6972L12.8614 21.7035L12.816 21.4225L14.007 22.2798L14.0894 22.2355L13.874 21.8695C13.874 21.8695 16.2796 23.9212 16.2919 23.8483C16.3042 23.7753 17.4849 20.8956 17.4849 20.8956L18.504 22.8701L18.6828 22.3741L17.0821 19.8515V19.8517ZM30.8764 23.9881L29.1215 27.4099C29.1215 27.4099 26.2187 39.9274 27.2996 44.3171L28.4824 47.5968L28.1942 43.3417C28.1942 43.3417 27.9155 32.3821 29.6133 28.4397L30.8764 23.9886V23.9881ZM9.12323 23.9881L10.8781 27.4099C10.8781 27.4099 13.7809 39.9274 12.7 44.3171L11.5172 47.5968L11.8055 43.3417C11.8055 43.3417 12.0842 32.3821 10.3864 28.4397L9.12323 23.9886V23.9881ZM19.0265 27.1229C19.0111 27.055 18.2506 26.6822 18.2506 26.6822L17.8895 26.7557L17.9045 26.9028C17.9045 26.9028 18.903 27.3998 18.9263 27.3264C18.9492 27.2529 19.0261 27.1232 19.0261 27.1232L19.0265 27.1229ZM10.9581 4.0513L9.09964 11.8235L8.73238 11.4998L9.41321 14.1199L8.86814 13.5854C8.86814 13.5854 9.06476 14.5319 9.00423 14.4205C8.94371 14.3093 8.4896 13.9084 8.4896 13.9084L9.51409 16.9154L7.47948 12.4526C7.47948 12.4526 7.98352 13.2205 7.98352 13.141C7.98352 13.0615 7.67747 10.7042 7.67747 10.7042L8.09157 11.6577L10.9581 4.05104V4.0513ZM11.8089 2.75894L13.4144 9.45763L12.9627 8.83157L13.757 12.311L12.8676 10.8596L12.9329 12.6971L12.7428 12.4438L12.9141 14.336L11.8397 8.89143L12.0955 9.19327L11.8086 2.75894H11.8089ZM14.6895 8.27218L14.7264 7.50301L14.7271 7.50325L15.9322 12.3077H16.5248C16.6622 12.3105 16.812 12.31 16.9614 12.3077H20H23.0386C23.188 12.31 23.3374 12.3105 23.4752 12.3077H24.0678L25.2729 7.50325L25.2736 7.50301L25.3105 8.27218C26.07 5.72873 26.8288 3.18529 27.5886 0.64209L34.2077 11.7179L33.0047 14.9588L33.0088 14.9593C35.1583 19.3389 37.6617 23.5341 40 27.8591C39.7627 27.8584 38.9622 27.8461 38.8462 27.8654C33.3487 28.7722 30.7684 49.6613 30.6805 53.4963L30.6771 53.4938L30.5471 45.7005L28.8757 46.4868L29.5066 49.8517L29.5001 49.8502L27.661 47.8858L27.9257 50.1193L26.8541 48.4771L20 53.2423L13.1459 48.4771L12.0743 50.1193L12.3389 47.8858L10.4999 49.8502L10.4934 49.8517L11.1243 46.4868L9.45288 45.7005L9.32293 53.4938L9.31951 53.4963C9.23163 49.6613 6.65128 28.7722 1.15374 27.8654C1.03782 27.8463 0.237314 27.8584 0 27.8591C2.33826 23.5341 4.84167 19.3389 6.99118 14.9593L6.99527 14.9588L5.7923 11.7179L12.4114 0.64209C13.1712 3.18529 13.93 5.72873 14.6895 8.27218ZM20 13.7238L19.9798 13.7223L18.3638 13.1624L18.3949 13.6808L19.301 16.1274L19.4454 16.1417C19.4454 16.1417 19.5767 15.9581 19.5438 15.9196C19.511 15.8809 19.3732 14.7462 19.3732 14.7462L19.9969 15.8809L20 15.8816L20.0031 15.8809L20.6268 14.7462C20.6268 14.7462 20.4886 15.8809 20.4562 15.9196C20.4233 15.9584 20.5546 16.1417 20.5546 16.1417L20.6989 16.1274L21.6051 13.6808L21.6362 13.1624L20.0202 13.7223L20 13.7238ZM20 17.5641H19.9966L14.0049 15.4747L15.7383 13.1687L15.6528 12.9106L13.121 15.6726L20.0003 18.1877L26.8797 15.6726L24.3479 12.9106L24.2624 13.1687L25.9958 15.4747L20.0041 17.5641H20.0007H20ZM20 19.5653L19.9805 19.5316L15.3919 16.9972L12.7335 17.8996L13.4927 16.6641L12.0466 16.4599L11.7692 17.0402L10.2065 17.9965L10.4038 18.0943L10.3847 18.3064L9.81808 19.1188L9.91417 19.1472L12.0657 18.1864L10.1002 20.2205L10.8111 21.865L10.9763 22.6306C10.9763 22.6306 12.1163 23.6274 12.0667 23.5545C12.0175 23.4815 11.918 22.9345 11.918 22.9345L11.4064 22.492L11.7686 21.8029L11.8937 22.3268L12.9931 22.9609L12.1686 22.9058L15.5789 25.0473L15.7113 24.9014L15.5314 24.1647L15.8904 24.7067L16.1455 24.387L15.3761 28.1351L17.2124 29.4053L19.3985 28.8265L17.3434 26.8487L18.2396 25.08L18.0864 25.9L20 26.074L21.9136 25.9L21.7604 25.08L22.6566 26.8487L20.6015 28.8265L22.7876 29.4053L24.6238 28.1351L23.8545 24.387L24.1096 24.7067L24.4686 24.1647L24.2887 24.9014L24.4211 25.0473L27.8314 22.9058L27.0069 22.9609L28.1063 22.3268L28.2314 21.8029L28.5935 22.492L28.082 22.9345C28.082 22.9345 27.9825 23.4813 27.9333 23.5545C27.8837 23.6274 29.0237 22.6306 29.0237 22.6306L29.1889 21.865L29.8998 20.2205L27.9343 18.1864L30.0858 19.1472L30.1819 19.1188L29.6153 18.3064L29.5962 18.0943L29.7935 17.9965L28.2307 17.0402L27.9534 16.4599L26.5073 16.6641L27.2665 17.8996L24.6081 16.9972L20.0195 19.5316L20 19.5653ZM20 29.2574L18.2205 29.6845L18.2578 29.7934L20.0003 29.7717L21.7429 29.7934L21.7802 29.6845L20.0007 29.2574H20ZM20 31.1853L19.9665 31.1931L17.5609 31.9475L17.7578 32.3534L19.9997 32.6115L22.2415 32.3534L22.4384 31.9475L20.0328 31.1931L19.9993 31.1853H20ZM20 32.9417L18.6281 33.4501L20 33.9582L21.3719 33.4501L20 32.9417ZM20 46.1092C19.7983 45.9445 19.4084 45.6348 19.4084 45.6348H19.2781C19.2781 45.6348 18.798 47.677 18.7775 47.6471C18.7597 47.6209 19.735 48.9608 20 49.3104C20.265 48.9608 21.2399 47.6209 21.2225 47.6471C21.202 47.677 20.7219 45.6348 20.7219 45.6348H20.5916C20.5916 45.6348 20.2018 45.9445 20 46.1092ZM20 49.5504L19.9538 49.5275L18.4858 47.764L18.9731 45.2523L18.0338 44.3739L17.857 44.377C17.857 44.377 18.2974 45.8167 18.2974 45.783C18.2974 45.7495 17.7007 47.8158 17.7007 47.8158L20.0003 50.5104L22.3 47.8158C22.3 47.8158 21.7032 45.7493 21.7032 45.783C21.7032 45.8164 22.1437 44.377 22.1437 44.377L21.9669 44.3739L21.0276 45.2523L21.5148 47.764L20.0468 49.5275L20.0007 49.5504H20ZM17.2948 15.567L16.3938 13.5246L15.279 14.3003L15.2814 14.3835L14.417 15.2553L14.4303 15.4073L16.3504 15.8145V15.6691L14.8786 15.1457L15.3707 14.6449L17.2555 15.7209L17.2948 15.5672V15.567ZM18.0129 12.8935L17.1601 12.7806L18.6219 16.5915L19.1803 16.9647L18.0129 12.8935ZM9.37935 18.493L7.55642 16.061L7.35398 16.1915V16.4151L8.71289 18.6505L8.57304 19.5351L8.59663 19.8186L8.87396 20.3988L9.00903 20.2263L8.85993 19.4106L9.37969 18.4933L9.37935 18.493ZM7.87922 17.7751C7.87409 17.7238 7.59984 17.3712 7.55949 17.3712C7.51948 17.3712 7.03529 17.3015 7.03529 17.3015L6.93543 17.8378L7.884 17.9406L7.87888 17.7754L7.87922 17.7751ZM7.63028 18.9573C7.63028 18.9573 6.30112 18.8892 6.30112 18.9183C6.30112 18.9475 6.05355 19.7823 6.05355 19.7823C6.05355 19.7823 7.08692 19.9805 7.09991 19.9579C7.11325 19.9353 7.62994 19.6136 7.62994 19.6136V18.9573H7.63028ZM13.3768 31.2316C13.3768 31.2316 14.7278 34.1378 15.6521 34.8516L15.4298 35.3831C15.4298 35.3831 13.6213 32.9591 13.3768 31.2319V31.2316ZM17.037 38.7085C16.8965 38.7085 16.1732 38.3981 15.5304 38.4424C15.5304 38.4424 12.8577 34.0085 13.0987 33.0773C13.0987 33.0773 14.3647 34.2004 17.037 38.7085ZM18.2147 33.8151L18.3969 39.8283C18.3969 39.8283 15.6316 39.5823 13.9293 39.124L13.9143 39.9179C13.9143 39.9179 17.6829 40.8231 18.6705 40.7225C18.6705 40.7225 19.9316 33.9046 18.2147 33.8153V33.8151ZM16.8294 40.6828L16.2717 40.6033L16.0942 41.2869L16.2413 41.3823L16.6041 41.3664L16.8291 40.683L16.8294 40.6828ZM18.2472 41.7709C18.2472 41.7709 14.1766 41.2955 13.8965 41.1483L13.8849 41.8466C13.8849 41.8466 16.126 42.5234 18.0358 42.5363L18.2475 41.7709H18.2472ZM17.8115 43.357C17.8115 43.357 15.4521 43.2066 13.9878 42.865L13.8883 43.1943C13.8883 43.1943 16.9495 43.7554 17.7394 43.7147L17.8115 43.357ZM17.4873 44.0381V44.1946L14.9183 43.8895L14.6539 45.5053L15.4572 45.8818L15.437 46.406L14.0921 45.8889L14.312 43.8626L13.8668 43.7597L13.8958 43.5213L17.488 44.0379L17.4873 44.0381ZM17.925 49.0752C17.9551 49.1786 18.5481 49.8809 18.5481 49.8809L18.4342 50.0444L13.3508 47.7854L13.4869 47.1206L17.925 49.075V49.0752ZM8.31863 21.2666L5.06257 20.9876L4.08734 22.5298L7.33894 22.9219L8.31863 21.2668V21.2666ZM9.49425 27.0364L8.82198 24.9716L3.1391 24.4454L2.37826 25.8026L7.73149 26.5205L2.01921 26.2403L2.10641 26.4116L9.49391 27.0366L9.49425 27.0364ZM10.1484 29.1766L10.5649 31.0734L5.23287 30.6941L4.93195 30.347L7.22028 30.4111C7.22028 30.4111 4.86355 30.0826 4.81431 30.0228C4.76507 29.9629 3.73478 28.5999 3.73478 28.5999L10.1487 29.1766H10.1484ZM10.9178 32.9548L11.1958 34.5689L7.57352 34.2479L7.57112 34.051L8.26494 33.9725L7.2702 33.8221L7.01271 33.5432L7.81801 36.8186L7.61558 36.6546L6.09697 32.5013L10.9178 32.9548ZM11.2813 35.8904L11.546 37.4723L8.42223 36.973L8.39659 36.7448L10.6391 36.8877L8.39557 36.4015L8.16577 35.5161L11.2813 35.8902V35.8904ZM11.4902 38.7349C11.4902 38.7349 11.7019 40.4468 11.5422 40.4016C11.3825 40.3565 9.10579 39.9644 9.10579 39.9644L8.92593 39.5285C8.92593 39.5285 10.1139 39.6688 10.067 39.6445C10.0202 39.6201 8.92388 39.2141 8.92388 39.2141L8.80112 38.3016L11.4899 38.7349H11.4902ZM11.3534 43.0338L10.0827 42.4425L9.67035 44.7075L9.3838 44.639L9.58452 41.705L11.6697 42.6502L11.4393 44.1533L11.2074 44.2059L11.3534 43.0335V43.0338ZM11.1151 44.8996C11.1366 44.9341 11.2409 45.4288 11.1175 45.4165C10.9944 45.4042 10.2554 45.1056 10.2459 45.0815C10.2363 45.0573 10.4086 43.0803 10.4086 43.0803L10.8839 43.2456L10.7513 44.8385L11.1151 44.8999V44.8996ZM20.9732 27.1232C20.9886 27.0553 21.7491 26.6825 21.7491 26.6825L22.1102 26.7559L22.0951 26.9031C22.0951 26.9031 21.0966 27.4001 21.0734 27.3266C21.0505 27.2532 20.9735 27.1234 20.9735 27.1234L20.9732 27.1232ZM29.0415 4.05154L30.9 11.8237L31.2673 11.5L30.5864 14.1202L31.1315 13.5857C31.1315 13.5857 30.9349 14.5322 30.9954 14.4208C31.0559 14.3096 31.51 13.9087 31.51 13.9087L30.4856 16.9157L32.5202 12.4528C32.5202 12.4528 32.0161 13.2207 32.0161 13.1412C32.0161 13.0618 32.3222 10.7044 32.3222 10.7044L31.9081 11.658L29.0415 4.0513V4.05154ZM28.1907 2.7592L26.5853 9.45787L27.037 8.83183L26.2426 12.3112L27.1321 10.8599L27.0667 12.6973L27.2569 12.444L27.0856 14.3363L28.16 8.89169L27.9042 9.19352L28.1911 2.7592H28.1907ZM22.7052 15.567L23.6062 13.5246L24.721 14.3003L24.7186 14.3835L25.583 15.2553L25.5697 15.4073L23.6496 15.8145V15.6691L25.1214 15.1457L24.6293 14.6449L22.7445 15.7209L22.7052 15.5672V15.567ZM21.9871 12.8935L22.8399 12.7806L21.3781 16.5915L20.8196 16.9647L21.9871 12.8935ZM30.6206 18.493L32.4436 16.061L32.646 16.1915V16.4151L31.2871 18.6505L31.427 19.5351L31.4034 19.8186L31.126 20.3988L30.991 20.2263L31.1401 19.4106L30.6203 18.4933L30.6206 18.493ZM32.1208 17.7751C32.1259 17.7238 32.4001 17.3712 32.4405 17.3712C32.4805 17.3712 32.9647 17.3015 32.9647 17.3015L33.0645 17.8378L32.116 17.9406L32.1211 17.7754L32.1208 17.7751ZM32.3697 18.9573C32.3697 18.9573 33.6989 18.8892 33.6989 18.9183C33.6989 18.9475 33.9464 19.7823 33.9464 19.7823C33.9464 19.7823 32.9131 19.9805 32.9001 19.9579C32.8867 19.9353 32.3701 19.6136 32.3701 19.6136V18.9573H32.3697ZM26.6232 31.2316C26.6232 31.2316 25.2722 34.1378 24.3479 34.8516L24.5702 35.3831C24.5702 35.3831 26.3787 32.9591 26.6232 31.2319V31.2316ZM22.963 38.7085C23.1035 38.7085 23.8268 38.3981 24.4696 38.4424C24.4696 38.4424 27.1423 34.0085 26.9012 33.0773C26.9012 33.0773 25.6353 34.2004 22.963 38.7085ZM21.7853 33.8151L21.6031 39.8283C21.6031 39.8283 24.3684 39.5823 26.0706 39.124L26.0857 39.9179C26.0857 39.9179 22.3171 40.8231 21.3295 40.7225C21.3295 40.7225 20.0684 33.9046 21.7853 33.8153V33.8151ZM23.1706 40.6828L23.7283 40.6033L23.9058 41.2869L23.7587 41.3823L23.3959 41.3664L23.1709 40.683L23.1706 40.6828ZM21.7528 41.7709C21.7528 41.7709 25.8234 41.2955 26.1035 41.1483L26.1151 41.8466C26.1151 41.8466 23.874 42.5234 21.9642 42.5363L21.7525 41.7709H21.7528ZM22.1885 43.357C22.1885 43.357 24.5479 43.2066 26.0122 42.865L26.1117 43.1943C26.1117 43.1943 23.0505 43.7554 22.2606 43.7147L22.1885 43.357ZM22.5127 44.0381V44.1946L25.0817 43.8895L25.3461 45.5053L24.5428 45.8818L24.563 46.406L25.9079 45.8889L25.688 43.8626L26.1332 43.7597L26.1042 43.5213L22.512 44.0379L22.5127 44.0381ZM22.0749 49.0752C22.0449 49.1786 21.4519 49.8809 21.4519 49.8809L21.5658 50.0444L26.6492 47.7854L26.5131 47.1206L22.0749 49.075V49.0752ZM31.6814 21.2666L34.9374 20.9876L35.9127 22.5298L32.6611 22.9219L31.6814 21.2668V21.2666ZM30.5057 27.0364L31.178 24.9716L36.8609 24.4454L37.6217 25.8026L32.2685 26.5205L37.9808 26.2403L37.8936 26.4116L30.5061 27.0366L30.5057 27.0364ZM29.8516 29.1766L29.4351 31.0734L34.7671 30.6941L35.068 30.347L32.7797 30.4111C32.7797 30.4111 35.1364 30.0826 35.1857 30.0228C35.2349 29.9629 36.2652 28.5999 36.2652 28.5999L29.8512 29.1766H29.8516ZM29.0822 32.9548L28.8042 34.5689L32.4265 34.2479L32.4289 34.051L31.735 33.9725L32.7298 33.8221L32.9873 33.5432L32.182 36.8186L32.3844 36.6546L33.903 32.5013L29.0822 32.9548ZM28.7187 35.8904L28.454 37.4723L31.5777 36.973L31.6034 36.7448L29.3609 36.8877L31.6044 36.4015L31.8342 35.5161L28.7187 35.8902V35.8904ZM28.5098 38.7349C28.5098 38.7349 28.2981 40.4468 28.4578 40.4016C28.6175 40.3565 30.8942 39.9644 30.8942 39.9644L31.0741 39.5285C31.0741 39.5285 29.8861 39.6688 29.933 39.6445C29.9798 39.6201 31.0761 39.2141 31.0761 39.2141L31.1989 38.3016L28.5101 38.7349H28.5098ZM28.6466 43.0338L29.9173 42.4425L30.3296 44.7075L30.6162 44.639L30.4155 41.705L28.3303 42.6502L28.5607 44.1533L28.7926 44.2059L28.6466 43.0335V43.0338ZM28.8849 44.8996C28.8633 44.9341 28.7591 45.4288 28.8825 45.4165C29.0056 45.4042 29.7446 45.1056 29.7541 45.0815C29.7637 45.0573 29.5914 43.0803 29.5914 43.0803L29.1161 43.2456L29.2487 44.8385L28.8849 44.8999V44.8996ZM15.4999 21.2399L14.8943 20.5975L13.4058 20.2929L13.4896 20.5243L14.0607 21.1029L15.3553 21.4112L15.4996 21.2399H15.4999ZM24.5004 21.2399L25.106 20.5975L26.5945 20.2929L26.5107 20.5243L25.9397 21.1029L24.6451 21.4112L24.5007 21.2399H24.5004Z" fill="white"/>
</svg>
