<svg width="44" height="46" viewBox="0 0 44 46" fill="none" xmlns="http://www.w3.org/2000/svg">
<path d="M30.5574 23.6601C30.8721 22.7721 32.1279 22.7721 32.4426 23.6601L34.6111 29.7803C34.7119 30.0645 34.9355 30.2881 35.2197 30.3889L41.3399 32.5574C42.2279 32.8721 42.2279 34.1279 41.3399 34.4426L35.2197 36.6111C34.9355 36.7119 34.7119 36.9355 34.6111 37.2197L32.4426 43.3399C32.1279 44.2279 30.8721 44.2279 30.5574 43.3399L28.3889 37.2197C28.2881 36.9355 28.0645 36.7119 27.7803 36.6111L21.6601 34.4426C20.7721 34.1279 20.7721 32.8721 21.6601 32.5574L27.7803 30.3889C28.0645 30.2881 28.2881 30.0645 28.3889 29.7803L30.5574 23.6601Z" fill="#87FF97"/>
<path d="M23.0574 2.66014C23.3721 1.77213 24.6279 1.77212 24.9426 2.66014L25.4106 3.98086C25.5113 4.26511 25.7349 4.48873 26.0191 4.58945L27.3399 5.05742C28.2279 5.37208 28.2279 6.62792 27.3399 6.94258L26.0191 7.41055C25.7349 7.51127 25.5113 7.73489 25.4106 8.01914L24.9426 9.33986C24.6279 10.2279 23.3721 10.2279 23.0574 9.33986L22.5894 8.01914C22.4887 7.73489 22.2651 7.51127 21.9809 7.41055L20.6601 6.94258C19.7721 6.62792 19.7721 5.37208 20.6601 5.05742L21.9809 4.58945C22.2651 4.48873 22.4887 4.26511 22.5894 3.98086L23.0574 2.66014Z" fill="#87FF97"/>
<path d="M5.56642 22.4321C5.89482 21.5766 7.10518 21.5766 7.43358 22.4321L8.03009 23.986C8.13796 24.2671 8.36669 24.4846 8.6528 24.5781L10.0941 25.0495C11.0129 25.3501 11.0129 26.6499 10.0941 26.9505L8.6528 27.4219C8.36669 27.5154 8.13796 27.7329 8.03009 28.014L7.43358 29.5679C7.10518 30.4234 5.89482 30.4234 5.56642 29.5679L4.96991 28.014C4.86204 27.7329 4.63331 27.5154 4.3472 27.4219L2.90589 26.9505C1.98706 26.6499 1.98706 25.3501 2.90589 25.0495L4.3472 24.5781C4.63331 24.4846 4.86204 24.2671 4.96991 23.986L5.56642 22.4321Z" fill="#FFD08B"/>
</svg>
